<?xml version="1.0" encoding="UTF-8"?>
<svg version="1.1" xmlns="http://www.w3.org/2000/svg" viewBox="0 0 180 180">
<path d="M0 0 C0.94359375 0.40089844 1.8871875 0.80179687 2.859375 1.21484375 C20.33829134 9.73211231 31.5619862 26.10972948 38.07421875 43.94140625 C38.99475945 46.9826863 39.42732964 49.85845361 39.875 53 C41.93676426 63.2320535 47.61059088 71.9457361 52.83251953 80.86206055 C55.63220605 85.98896453 55.72556151 91.29558535 55 97 C52.35575729 101.00642836 50.87541126 101.81343694 46.1875 102.8125 C45.135625 102.874375 44.08375 102.93625 43 103 C43.03480469 103.72445312 43.06960937 104.44890625 43.10546875 105.1953125 C43.26689446 110.9605163 43.21022193 114.99205379 40 120 C39.67 120.66 39.34 121.32 39 122 C39.33 122.66 39.66 123.32 40 124 C40.49701136 129.36935226 40.94644032 135.05323301 38.5 140 C34.08241174 145.30110591 29.48113554 147.04287136 22.6875 147.8125 C18.79110251 148.05227831 14.99705834 147.96241689 11.109375 147.6875 C9.82994019 147.59891724 9.82994019 147.59891724 8.5246582 147.50854492 C6.81829597 147.37924334 5.113386 147.22880652 3.41088867 147.0559082 C1.21364326 146.87833711 -0.80946911 146.75063805 -3 147 C-5.8476042 149.55782843 -6.86796308 152.43018997 -7.18945312 156.25244141 C-7.21974609 157.11015137 -7.25003906 157.96786133 -7.28125 158.8515625 C-7.31863281 159.78484375 -7.35601562 160.718125 -7.39453125 161.6796875 C-7.46512315 163.65103168 -7.53543345 165.62238597 -7.60546875 167.59375 C-7.64285156 168.52445313 -7.68023437 169.45515625 -7.71875 170.4140625 C-7.74904297 171.2695166 -7.77933594 172.1249707 -7.81054688 173.00634766 C-8 175 -8 175 -9 176 C-16.1277688 176.81972828 -22.40271251 174.20185207 -29.08203125 171.94921875 C-30.33255783 171.53460892 -31.58308441 171.11999908 -32.87150574 170.69282532 C-35.50708045 169.8177264 -38.13999381 168.93514439 -40.77124023 168.04711914 C-44.14370808 166.9096209 -47.52215238 165.79121528 -50.90279102 164.67827129 C-54.13263134 163.61210732 -57.3570496 162.52999177 -60.58203125 161.44921875 C-61.79655472 161.0491008 -63.01107819 160.64898285 -64.2624054 160.23674011 C-65.38084335 159.85657242 -66.49928131 159.47640472 -67.65161133 159.0847168 C-68.63865555 158.75384567 -69.62569977 158.42297455 -70.64265442 158.08207703 C-73 157 -73 157 -75 154 C-74.828125 151.390625 -74.828125 151.390625 -74.25 148.25 C-74.05277344 147.095 -73.85554688 145.94 -73.65234375 144.75 C-73.43707031 143.5125 -73.22179687 142.275 -73 141 C-69.93258647 121.86242628 -73.15016283 112.99216649 -83.32788086 96.97241211 C-93.43169397 80.90862341 -97.00045882 63.65763836 -93.3125 44.80859375 C-92.40339438 41.41838739 -91.32801882 38.24764728 -90 35 C-89.57589844 33.95714844 -89.15179688 32.91429687 -88.71484375 31.83984375 C-85.32738102 24.37610274 -80.79934692 18.73935367 -75 13 C-74.39671875 12.36320312 -73.7934375 11.72640625 -73.171875 11.0703125 C-55.50469043 -6.21280284 -22.0319812 -9.39599198 0 0 Z " fill="#090A0A" transform="translate(109,4)"/>
<path d="M0 0 C3.53571429 0.53571429 3.53571429 0.53571429 5 2 C5.23481693 4.18292774 5.41363323 6.37203174 5.5625 8.5625 C5.68818359 10.35880859 5.68818359 10.35880859 5.81640625 12.19140625 C5.87699219 13.11824219 5.93757813 14.04507813 6 15 C6.66386719 14.278125 7.32773438 13.55625 8.01171875 12.8125 C8.89472656 11.884375 9.77773437 10.95625 10.6875 10 C11.99267578 8.6078125 11.99267578 8.6078125 13.32421875 7.1875 C16 5 16 5 18.83203125 4.6875 C19.54746094 4.790625 20.26289062 4.89375 21 5 C21.83984375 7.13671875 21.83984375 7.13671875 22 10 C20.23526782 12.21263375 18.63273028 13.93752723 16.5625 15.8125 C15.76875977 16.56563477 15.76875977 16.56563477 14.95898438 17.33398438 C13.65239036 18.56995168 12.32783937 19.78688595 11 21 C12.48113281 21.07347656 12.48113281 21.07347656 13.9921875 21.1484375 C15.27351563 21.22320312 16.55484375 21.29796875 17.875 21.375 C19.15117188 21.44460937 20.42734375 21.51421875 21.7421875 21.5859375 C25 22 25 22 27 24 C26.46428571 27.53571429 26.46428571 27.53571429 25 29 C22.64686445 29.07271741 20.29166332 29.08370868 17.9375 29.0625 C16.64714844 29.05347656 15.35679688 29.04445313 14.02734375 29.03515625 C13.02832031 29.02355469 12.02929688 29.01195313 11 29 C12.08148167 30.25160238 13.16527922 31.50120381 14.25 32.75 C14.88421875 33.48347656 15.5184375 34.21695313 16.171875 34.97265625 C18.0283629 37.11156783 18.0283629 37.11156783 20.5 39.1875 C22 41 22 41 21.75 43.75 C21.5025 44.4925 21.255 45.235 21 46 C16.07215495 45.582687 14.0222855 43.45014073 10.6875 39.9375 C9.80449219 39.01839844 8.92148438 38.09929687 8.01171875 37.15234375 C7.34785156 36.44207031 6.68398437 35.73179688 6 35 C5.95101562 35.98742187 5.90203125 36.97484375 5.8515625 37.9921875 C5.77679688 39.27351563 5.70203125 40.55484375 5.625 41.875 C5.55539063 43.15117188 5.48578125 44.42734375 5.4140625 45.7421875 C5 49 5 49 3 51 C-0.53571429 50.46428571 -0.53571429 50.46428571 -2 49 C-2.23527773 46.65012738 -2.41386417 44.29443961 -2.5625 41.9375 C-2.64628906 40.64714844 -2.73007813 39.35679688 -2.81640625 38.02734375 C-2.87699219 37.02832031 -2.93757813 36.02929688 -3 35 C-3.73605469 35.80566406 -4.47210938 36.61132812 -5.23046875 37.44140625 C-6.21532895 38.48254417 -7.20105148 39.52286684 -8.1875 40.5625 C-8.91163086 41.36204102 -8.91163086 41.36204102 -9.65039062 42.17773438 C-11.10546875 43.69140625 -11.10546875 43.69140625 -14 46 C-16.86328125 45.83984375 -16.86328125 45.83984375 -19 45 C-19.3125 42.83203125 -19.3125 42.83203125 -19 40 C-16.8125 37.32421875 -16.8125 37.32421875 -14 34.6875 C-13.071875 33.80449219 -12.14375 32.92148438 -11.1875 32.01171875 C-10.465625 31.34785156 -9.74375 30.68398437 -9 30 C-9.91523437 29.95101562 -10.83046875 29.90203125 -11.7734375 29.8515625 C-13.55621094 29.73941406 -13.55621094 29.73941406 -15.375 29.625 C-16.55835938 29.55539063 -17.74171875 29.48578125 -18.9609375 29.4140625 C-22 29 -22 29 -24 27 C-23.46428571 23.46428571 -23.46428571 23.46428571 -22 22 C-19.65012738 21.76472227 -17.29443961 21.58613583 -14.9375 21.4375 C-13.64714844 21.35371094 -12.35679688 21.26992188 -11.02734375 21.18359375 C-10.02832031 21.12300781 -9.02929688 21.06242187 -8 21 C-8.80566406 20.26394531 -9.61132812 19.52789062 -10.44140625 18.76953125 C-11.48254417 17.78467105 -12.52286684 16.79894852 -13.5625 15.8125 C-14.36204102 15.08836914 -14.36204102 15.08836914 -15.17773438 14.34960938 C-16.69140625 12.89453125 -16.69140625 12.89453125 -19 10 C-18.83984375 7.13671875 -18.83984375 7.13671875 -18 5 C-13.07215495 5.417313 -11.0222855 7.54985927 -7.6875 11.0625 C-6.80449219 11.98160156 -5.92148438 12.90070312 -5.01171875 13.84765625 C-4.01591797 14.91306641 -4.01591797 14.91306641 -3 16 C-2.95101562 15.01257812 -2.90203125 14.02515625 -2.8515625 13.0078125 C-2.77679688 11.72648437 -2.70203125 10.44515625 -2.625 9.125 C-2.55539063 7.84882812 -2.48578125 6.57265625 -2.4140625 5.2578125 C-2 2 -2 2 0 0 Z " fill="#10DF9A" transform="translate(77,38)"/>
</svg>
